<svg xmlns="http://www.w3.org/2000/svg" viewBox="0 0 64 64">
  <rect width="64" height="64" rx="8" fill="#070b12"/>

  <!-- антенны -->
  <line x1="24" y1="22" x2="14" y2="10" stroke="#22c55e" stroke-width="1.5"/>
  <line x1="40" y1="22" x2="50" y2="10" stroke="#22c55e" stroke-width="1.5"/>
  <rect x="12" y="8" width="3" height="3" fill="#22c55e"/>
  <rect x="49" y="8" width="3" height="3" fill="#22c55e"/>

  <!-- корпус -->
  <rect x="10" y="22" width="44" height="28" rx="3" fill="none" stroke="#22c55e" stroke-width="1.5"/>

  <!-- динамик -->
  <circle cx="22" cy="34" r="7" fill="none" stroke="#22c55e" stroke-width="1"/>
  <circle cx="22" cy="34" r="3" fill="none" stroke="#22c55e" stroke-width="1"/>

  <!-- шкала -->
  <rect x="32" y="25" width="18" height="7" rx="1" fill="none" stroke="#22c55e" stroke-width="1"/>
  <line x1="37" y1="25" x2="37" y2="32" stroke="#22c55e" stroke-width="0.8"/>
  <line x1="41" y1="25" x2="41" y2="32" stroke="#22c55e" stroke-width="0.8"/>
  <line x1="45" y1="25" x2="45" y2="32" stroke="#22c55e" stroke-width="0.8"/>
  <rect x="38" y="24" width="2" height="9" fill="#22c55e"/>

  <!-- кнопки -->
  <rect x="32" y="35" width="8" height="5" rx="1" fill="none" stroke="#22c55e" stroke-width="0.8"/>
  <circle cx="45" cy="37" r="3" fill="none" stroke="#22c55e" stroke-width="0.8"/>

  <!-- решётка -->
  <rect x="11" y="42" width="42" height="6" rx="1" fill="none" stroke="#22c55e" stroke-width="0.8"/>
  <line x1="18" y1="42" x2="18" y2="48" stroke="#22c55e" stroke-width="0.5"/>
  <line x1="25" y1="42" x2="25" y2="48" stroke="#22c55e" stroke-width="0.5"/>
  <line x1="32" y1="42" x2="32" y2="48" stroke="#22c55e" stroke-width="0.5"/>
  <line x1="39" y1="42" x2="39" y2="48" stroke="#22c55e" stroke-width="0.5"/>
  <line x1="46" y1="42" x2="46" y2="48" stroke="#22c55e" stroke-width="0.5"/>

  <!-- текст -->
  <text x="32" y="59" text-anchor="middle" font-family="Courier New, monospace" font-size="7" font-weight="700" letter-spacing="1" fill="#22c55e">RADIONODUS</text>
</svg>
